HIERARCHY
ROOT Hips
{
    OFFSET 0.000000 0.000000 0.000000
    CHANNELS 6 Xposition Yposition Zposition Zrotation Xrotation Yrotation
    JOINT Spine
    {
        OFFSET -0.000000 7.236184 0.000000
        CHANNELS 3 Zrotation Xrotation Yrotation
        JOINT Spine1
        {
            OFFSET -0.000000 20.420147 0.000000
            CHANNELS 3 Zrotation Xrotation Yrotation
            JOINT Neck
            {
                OFFSET -0.000000 20.336288 1.848754
                CHANNELS 3 Zrotation Xrotation Yrotation
                JOINT Head
                {
                    OFFSET -0.000000 12.354461 -1.764923
                    CHANNELS 3 Zrotation Xrotation Yrotation
                    End Site
                    {
                        OFFSET -0.000000 22.061537 0.000000
                    }
                }
            }
            JOINT LeftShoulder
            {
                OFFSET 3.573296 18.396038 -0.314103
                CHANNELS 3 Zrotation Xrotation Yrotation
                JOINT LeftArm
                {
                    OFFSET 10.880760 0.000000 0.000000
                    CHANNELS 3 Zrotation Xrotation Yrotation
                    JOINT LeftForeArm
                    {
                        OFFSET 27.185530 0.000000 0.000000
                        CHANNELS 3 Zrotation Xrotation Yrotation
                        JOINT LeftHand
                        {
                            OFFSET 27.825975 0.000000 0.000000
                            CHANNELS 3 Zrotation Xrotation Yrotation
                            End Site
                            {
                                OFFSET 13.236923 0.000000 0.000000
                            }
                        }
                    }
                }
            }
            JOINT RightShoulder
            {
                OFFSET -3.474926 18.396038 -0.314103
                CHANNELS 3 Zrotation Xrotation Yrotation
                JOINT RightArm
                {
                    OFFSET -10.880760 0.000000 0.000000
                    CHANNELS 3 Zrotation Xrotation Yrotation
                    JOINT RightForeArm
                    {
                        OFFSET -27.185530 0.000000 0.000000
                        CHANNELS 3 Zrotation Xrotation Yrotation
                        JOINT RightHand
                        {
                            OFFSET -27.825975 0.000000 0.000000
                            CHANNELS 3 Zrotation Xrotation Yrotation
                            End Site
                            {
                                OFFSET -13.236923 0.000000 0.000000
                            }
                        }
                    }
                }
            }
        }
    }
    JOINT LeftUpLeg
    {
        OFFSET 8.824615 0.000000 0.000000
        CHANNELS 3 Zrotation Xrotation Yrotation
        JOINT LeftLeg
        {
            OFFSET -0.000000 -35.111282 0.000000
            CHANNELS 3 Zrotation Xrotation Yrotation
            JOINT LeftFoot
            {
                OFFSET -0.000000 -42.324711 0.000000
                CHANNELS 3 Zrotation Xrotation Yrotation
                JOINT LeftToeBase
                {
                    OFFSET -0.000000 -5.735999 13.236923
                    CHANNELS 3 Zrotation Xrotation Yrotation
                    End Site
                    {
                        OFFSET -0.000000 0.000000 3.529846
                    }
                }
            }
        }
    }
    JOINT RightUpLeg
    {
        OFFSET -8.824615 0.000000 0.000000
        CHANNELS 3 Zrotation Xrotation Yrotation
        JOINT RightLeg
        {
            OFFSET -0.000000 -35.111282 0.000000
            CHANNELS 3 Zrotation Xrotation Yrotation
            JOINT RightFoot
            {
                OFFSET -0.000000 -42.324711 0.000000
                CHANNELS 3 Zrotation Xrotation Yrotation
                JOINT RightToeBase
                {
                    OFFSET -0.000000 -5.735999 13.236923
                    CHANNELS 3 Zrotation Xrotation Yrotation
                    End Site
                    {
                        OFFSET -0.000000 0.000000 3.529846
                    }
                }
            }
        }
    }
}
MOTION
Frames:    4
Frame Time:    0.008333
-5.391330    80.942413    96.805023    0.466964    -2.617279    -176.418365    -2.370610    -14.478733    1.022865    -0.143698    6.530372    1.332284    2.870294    4.696729    -3.153739    10.109815    4.211498    -2.510956    0.932617    18.279343    -2.678128    -44.043598    47.328926    -39.814568    -3.263614    -5.092122    -17.480968    15.931410    -5.141911    3.228507    6.742037    19.751324    -3.752860    38.518307    47.002075    41.617760    1.043701    -5.747464    17.003950    -14.309362    -5.363032    -4.318406    1.936792    -1.415380    -1.132447    -3.631199    6.947263    0.430627    1.755266    -7.726724    -6.817335    -0.382659    0.535371    0.423758    -5.318707    -1.732905    1.411237    2.645430    9.475784    6.792523    0.368833    -8.928156    -13.474196    -0.400333    0.231865    0.432854    
-5.397826    80.942154    96.808189    0.473734    -2.607465    -176.454681    -2.358680    -14.474163    1.022779    -0.143515    6.533529    1.330571    2.871758    4.704119    -3.160198    10.119914    4.212873    -2.516704    0.932379    18.282782    -2.677772    -44.045914    47.325871    -39.813496    -3.264515    -5.092641    -17.477581    15.932091    -5.142488    3.228244    6.742074    19.748423    -3.754171    38.519596    47.001652    41.612572    1.037766    -5.750213    17.009531    -14.302462    -5.364652    -4.322801    1.939507    -1.399878    -1.119176    -3.631996    6.940802    0.457549    1.757011    -7.727005    -6.822039    -0.338104    0.543337    0.374412    -5.319982    -1.732173    1.425336    2.650644    9.473589    6.801777    0.371633    -8.919205    -13.463119    -0.401825    0.233404    0.434466    
-5.403671    80.941956    96.811317    0.480610    -2.597673    -176.491501    -2.347227    -14.469863    1.022695    -0.143094    6.536825    1.328951    2.873412    4.710484    -3.165087    10.127659    4.216515    -2.521282    0.932392    18.286211    -2.677704    -44.048302    47.322437    -39.812172    -3.265543    -5.092822    -17.473843    15.931869    -5.142786    3.227810    6.742170    19.745861    -3.755336    38.519669    47.004223    41.606968    1.027133    -5.755222    17.017998    -14.286679    -5.367953    -4.329223    1.942720    -1.384625    -1.105083    -3.632667    6.934866    0.483550    1.758682    -7.727353    -6.825882    -0.294777    0.550885    0.326428    -5.321115    -1.731113    1.441867    2.656927    9.470598    6.810334    0.374750    -8.910367    -13.453255    -0.403126    0.234952    0.435872    
-5.408792    80.941826    96.814415    0.487337    -2.588099    -176.528549    -2.336781    -14.465966    1.022583    -0.142222    6.540211    1.327330    2.875117    4.715932    -3.168565    10.133306    4.222147    -2.524841    0.932562    18.289104    -2.678220    -44.051537    47.319000    -39.809681    -3.266355    -5.092732    -17.469725    15.930285    -5.142825    3.227198    6.742560    19.743496    -3.756336    38.519100    47.008877    41.600765    1.012976    -5.761800    17.028370    -14.264536    -5.372388    -4.337102    1.946324    -1.369942    -1.090379    -3.633395    6.929723    0.508614    1.760248    -7.727934    -6.828891    -0.255074    0.557396    0.282459    -5.322285    -1.729927    1.460365    2.664230    9.466896    6.818246    0.375377    -8.901299    -13.444978    -0.404345    0.236814    0.437189    
